<svg width="470" height="94" viewBox="0 0 470 94" fill="none" xmlns="http://www.w3.org/2000/svg">
<mask id="path-1-outside-1_1_17" maskUnits="userSpaceOnUse" x="3.84033" y="18" width="285" height="64" fill="black">
<rect fill="white" x="3.84033" y="18" width="285" height="64"/>
<path d="M7.48033 22H20.4403V67.44H48.5203V78H7.48033V22ZM87.9441 78.96C82.1308 78.96 76.8774 77.7067 72.1841 75.2C67.5441 72.6933 63.8907 69.2533 61.2241 64.88C58.6107 60.4533 57.3041 55.4933 57.3041 50C57.3041 44.5067 58.6107 39.5733 61.2241 35.2C63.8907 30.7733 67.5441 27.3067 72.1841 24.8C76.8774 22.2933 82.1308 21.04 87.9441 21.04C93.7574 21.04 98.9841 22.2933 103.624 24.8C108.264 27.3067 111.917 30.7733 114.584 35.2C117.251 39.5733 118.584 44.5067 118.584 50C118.584 55.4933 117.251 60.4533 114.584 64.88C111.917 69.2533 108.264 72.6933 103.624 75.2C98.9841 77.7067 93.7574 78.96 87.9441 78.96ZM87.9441 67.92C91.2508 67.92 94.2374 67.1733 96.9041 65.68C99.5708 64.1333 101.651 62 103.144 59.28C104.691 56.56 105.464 53.4667 105.464 50C105.464 46.5333 104.691 43.44 103.144 40.72C101.651 38 99.5708 35.8933 96.9041 34.4C94.2374 32.8533 91.2508 32.08 87.9441 32.08C84.6374 32.08 81.6507 32.8533 78.9841 34.4C76.3174 35.8933 74.2107 38 72.6641 40.72C71.1707 43.44 70.4241 46.5333 70.4241 50C70.4241 53.4667 71.1707 56.56 72.6641 59.28C74.2107 62 76.3174 64.1333 78.9841 65.68C81.6507 67.1733 84.6374 67.92 87.9441 67.92ZM172.164 49.12H184.004V71.84C180.964 74.1333 177.444 75.8933 173.444 77.12C169.444 78.3467 165.417 78.96 161.364 78.96C155.551 78.96 150.324 77.7333 145.684 75.28C141.044 72.7733 137.391 69.3333 134.724 64.96C132.111 60.5333 130.804 55.5467 130.804 50C130.804 44.4533 132.111 39.4933 134.724 35.12C137.391 30.6933 141.071 27.2533 145.764 24.8C150.457 22.2933 155.737 21.04 161.604 21.04C166.511 21.04 170.964 21.8667 174.964 23.52C178.964 25.1733 182.324 27.5733 185.044 30.72L176.724 38.4C172.724 34.1867 167.897 32.08 162.244 32.08C158.671 32.08 155.497 32.8267 152.724 34.32C149.951 35.8133 147.791 37.92 146.244 40.64C144.697 43.36 143.924 46.48 143.924 50C143.924 53.4667 144.697 56.56 146.244 59.28C147.791 62 149.924 64.1333 152.644 65.68C155.417 67.1733 158.564 67.92 162.084 67.92C165.817 67.92 169.177 67.12 172.164 65.52V49.12ZM202.043 22H215.003V78H202.043V22ZM285.653 22V78H275.013L247.093 44V78H234.293V22H245.013L272.853 56V22H285.653Z"/>
</mask>
<path d="M7.48033 22V19H4.48033V22H7.48033ZM20.4403 22H23.4403V19H20.4403V22ZM20.4403 67.44H17.4403V70.44H20.4403V67.44ZM48.5203 67.44H51.5203V64.44H48.5203V67.44ZM48.5203 78V81H51.5203V78H48.5203ZM7.48033 78H4.48033V81H7.48033V78ZM7.48033 25H20.4403V19H7.48033V25ZM17.4403 22V67.44H23.4403V22H17.4403ZM20.4403 70.44H48.5203V64.44H20.4403V70.44ZM45.5203 67.44V78H51.5203V67.44H45.5203ZM48.5203 75H7.48033V81H48.5203V75ZM10.4803 78V22H4.48033V78H10.4803ZM72.1841 75.2L70.7582 77.8395L70.7645 77.8429L70.7708 77.8462L72.1841 75.2ZM61.2241 64.88L58.6407 66.4051L58.6516 66.4236L58.6627 66.4418L61.2241 64.88ZM61.2241 35.2L58.6543 33.652L58.6488 33.6611L61.2241 35.2ZM72.1841 24.8L70.7708 22.1538L70.7645 22.1571L70.7582 22.1605L72.1841 24.8ZM114.584 35.2L112.014 36.748L112.019 36.7549L112.023 36.7618L114.584 35.2ZM114.584 64.88L117.145 66.4418L117.15 66.4349L117.154 66.428L114.584 64.88ZM103.624 75.2L105.05 77.8395L103.624 75.2ZM96.9041 65.68L98.3699 68.2975L98.3896 68.2865L98.4092 68.2751L96.9041 65.68ZM103.144 59.28L100.536 57.7971L100.525 57.8166L100.514 57.8362L103.144 59.28ZM103.144 40.72L100.514 42.1638L100.525 42.1834L100.536 42.2029L103.144 40.72ZM96.9041 34.4L95.3989 36.9951L95.4185 37.0065L95.4383 37.0175L96.9041 34.4ZM78.9841 34.4L80.4499 37.0175L80.4697 37.0065L80.4892 36.9951L78.9841 34.4ZM72.6641 40.72L70.0562 39.2371L70.0451 39.2566L70.0343 39.2762L72.6641 40.72ZM72.6641 59.28L70.0343 60.7238L70.0451 60.7434L70.0562 60.7629L72.6641 59.28ZM78.9841 65.68L77.4789 68.2751L77.4985 68.2865L77.5183 68.2975L78.9841 65.68ZM87.9441 75.96C82.5771 75.96 77.8165 74.8071 73.5974 72.5538L70.7708 77.8462C75.9384 80.6062 81.6844 81.96 87.9441 81.96V75.96ZM73.61 72.5605C69.4227 70.2984 66.1673 67.2243 63.7855 63.3182L58.6627 66.4418C61.6142 71.2824 65.6654 75.0882 70.7582 77.8395L73.61 72.5605ZM63.8075 63.3549C61.4857 59.422 60.3041 54.995 60.3041 50H54.3041C54.3041 55.9916 55.7358 61.4847 58.6407 66.4051L63.8075 63.3549ZM60.3041 50C60.3041 45.0046 61.4857 40.6107 63.7993 36.7389L58.6488 33.6611C55.7358 38.536 54.3041 44.0087 54.3041 50H60.3041ZM63.7938 36.748C66.1778 32.7907 69.4318 29.6966 73.61 27.4395L70.7582 22.1605C65.6563 24.9167 61.6037 28.756 58.6543 33.652L63.7938 36.748ZM73.5974 27.4462C77.8165 25.1929 82.5771 24.04 87.9441 24.04V18.04C81.6844 18.04 75.9384 19.3938 70.7708 22.1538L73.5974 27.4462ZM87.9441 24.04C93.3116 24.04 98.0398 25.193 102.198 27.4395L105.05 22.1605C99.9284 19.3937 94.2033 18.04 87.9441 18.04V24.04ZM102.198 27.4395C106.376 29.6966 109.63 32.7907 112.014 36.748L117.154 33.652C114.204 28.756 110.152 24.9167 105.05 22.1605L102.198 27.4395ZM112.023 36.7618C114.382 40.6305 115.584 45.0162 115.584 50H121.584C121.584 43.9972 120.12 38.5162 117.145 33.6382L112.023 36.7618ZM115.584 50C115.584 54.9836 114.382 59.4023 112.014 63.332L117.154 66.428C120.12 61.5044 121.584 56.0031 121.584 50H115.584ZM112.023 63.3182C109.641 67.2243 106.385 70.2984 102.198 72.5605L105.05 77.8395C110.143 75.0882 114.194 71.2824 117.145 66.4418L112.023 63.3182ZM102.198 72.5605C98.0398 74.807 93.3116 75.96 87.9441 75.96V81.96C94.2033 81.96 99.9284 80.6063 105.05 77.8395L102.198 72.5605ZM87.9441 70.92C91.7208 70.92 95.2191 70.062 98.3699 68.2975L95.4383 63.0625C93.2557 64.2847 90.7807 64.92 87.9441 64.92V70.92ZM98.4092 68.2751C101.552 66.4523 104.019 63.9195 105.774 60.7238L100.514 57.8362C99.2822 60.0805 97.5896 61.8143 95.3989 63.0849L98.4092 68.2751ZM105.752 60.7629C107.583 57.5435 108.464 53.9292 108.464 50H102.464C102.464 53.0042 101.799 55.5765 100.536 57.7971L105.752 60.7629ZM108.464 50C108.464 46.0708 107.583 42.4565 105.752 39.2371L100.536 42.2029C101.799 44.4235 102.464 46.9958 102.464 50H108.464ZM105.774 39.2762C104.014 36.0716 101.535 33.5547 98.3699 31.7825L95.4383 37.0175C97.6069 38.2319 99.2871 39.9284 100.514 42.1638L105.774 39.2762ZM98.4092 31.8049C95.2521 29.9738 91.7396 29.08 87.9441 29.08V35.08C90.7619 35.08 93.2227 35.7329 95.3989 36.9951L98.4092 31.8049ZM87.9441 29.08C84.1485 29.08 80.6361 29.9738 77.4789 31.8049L80.4892 36.9951C82.6654 35.7329 85.1263 35.08 87.9441 35.08V29.08ZM77.5183 31.7825C74.3629 33.5495 71.8663 36.0538 70.0562 39.2371L75.2719 42.2029C76.5552 39.9462 78.272 38.2372 80.4499 37.0175L77.5183 31.7825ZM70.0343 39.2762C68.2707 42.4886 67.4241 46.0888 67.4241 50H73.4241C73.4241 46.9778 74.0708 44.3914 75.2938 42.1638L70.0343 39.2762ZM67.4241 50C67.4241 53.9112 68.2707 57.5114 70.0343 60.7238L75.2938 57.8362C74.0708 55.6086 73.4241 53.0222 73.4241 50H67.4241ZM70.0562 60.7629C71.8614 63.9375 74.3455 66.4577 77.4789 68.2751L80.4892 63.0849C78.2893 61.809 76.5602 60.0625 75.2719 57.7971L70.0562 60.7629ZM77.5183 68.2975C80.6691 70.062 84.1674 70.92 87.9441 70.92V64.92C85.1074 64.92 82.6324 64.2847 80.4499 63.0625L77.5183 68.2975ZM172.164 49.12V46.12H169.164V49.12H172.164ZM184.004 49.12H187.004V46.12H184.004V49.12ZM184.004 71.84L185.811 74.2349L187.004 73.3348V71.84H184.004ZM173.444 77.12L174.324 79.9882L173.444 77.12ZM145.684 75.28L144.258 77.9195L144.27 77.9258L144.282 77.9321L145.684 75.28ZM134.724 64.96L132.141 66.4851L132.152 66.5036L132.163 66.5218L134.724 64.96ZM134.724 35.12L132.154 33.572L132.149 33.5811L134.724 35.12ZM145.764 24.8L147.154 27.4587L147.166 27.4525L147.177 27.4462L145.764 24.8ZM174.964 23.52L176.11 20.7475V20.7475L174.964 23.52ZM185.044 30.72L187.079 32.9244L189.213 30.9549L187.314 28.7581L185.044 30.72ZM176.724 38.4L174.548 40.4655L176.585 42.6109L178.759 40.6044L176.724 38.4ZM152.724 34.32L154.146 36.9614L152.724 34.32ZM146.244 40.64L148.852 42.1229L146.244 40.64ZM146.244 59.28L143.636 60.7629L146.244 59.28ZM152.644 65.68L151.161 68.2879L151.191 68.305L151.222 68.3214L152.644 65.68ZM172.164 65.52L173.581 68.1644L175.164 67.3162V65.52H172.164ZM172.164 52.12H184.004V46.12H172.164V52.12ZM181.004 49.12V71.84H187.004V49.12H181.004ZM182.197 69.4451C179.463 71.508 176.263 73.1176 172.565 74.2518L174.324 79.9882C178.625 78.6691 182.465 76.7586 185.811 74.2349L182.197 69.4451ZM172.565 74.2518C168.84 75.3939 165.11 75.96 161.364 75.96V81.96C165.725 81.96 170.048 81.2994 174.324 79.9882L172.565 74.2518ZM161.364 75.96C155.986 75.96 151.249 74.829 147.086 72.6279L144.282 77.9321C149.399 80.6377 155.115 81.96 161.364 81.96V75.96ZM147.11 72.6405C142.923 70.3784 139.667 67.3043 137.285 63.3982L132.163 66.5218C135.114 71.3624 139.165 75.1682 144.258 77.9195L147.11 72.6405ZM137.307 63.4349C134.988 59.5065 133.804 55.054 133.804 50H127.804C127.804 56.0393 129.233 61.5601 132.141 66.4851L137.307 63.4349ZM133.804 50C133.804 44.9456 134.988 40.5261 137.299 36.6589L132.149 33.5811C129.233 38.4605 127.804 43.9611 127.804 50H133.804ZM137.294 36.668C139.669 32.725 142.936 29.6637 147.154 27.4587L144.374 22.1413C139.206 24.843 135.112 28.6617 132.154 33.572L137.294 36.668ZM147.177 27.4462C151.393 25.195 156.179 24.04 161.604 24.04V18.04C155.296 18.04 149.522 19.3917 144.351 22.1538L147.177 27.4462ZM161.604 24.04C166.17 24.04 170.227 24.8081 173.818 26.2925L176.11 20.7475C171.701 18.9252 166.852 18.04 161.604 18.04V24.04ZM173.818 26.2925C177.404 27.7745 180.373 29.9039 182.774 32.6819L187.314 28.7581C184.275 25.2427 180.525 22.5722 176.11 20.7475L173.818 26.2925ZM183.009 28.5156L174.689 36.1956L178.759 40.6044L187.079 32.9244L183.009 28.5156ZM178.9 36.3345C174.351 31.5431 168.745 29.08 162.244 29.08V35.08C167.049 35.08 171.097 36.8302 174.548 40.4655L178.9 36.3345ZM162.244 29.08C158.242 29.08 154.568 29.9198 151.302 31.6786L154.146 36.9614C156.427 35.7335 159.1 35.08 162.244 35.08V29.08ZM151.302 31.6786C148.036 33.4372 145.463 35.9438 143.636 39.1571L148.852 42.1229C150.118 39.8962 151.866 38.1895 154.146 36.9614L151.302 31.6786ZM143.636 39.1571C141.802 42.3833 140.924 46.0263 140.924 50H146.924C146.924 46.9337 147.593 44.3367 148.852 42.1229L143.636 39.1571ZM140.924 50C140.924 53.9292 141.806 57.5435 143.636 60.7629L148.852 57.7971C147.589 55.5765 146.924 53.0042 146.924 50H140.924ZM143.636 60.7629C145.45 63.9523 147.972 66.4743 151.161 68.2879L154.127 63.0721C151.876 61.7924 150.132 60.0477 148.852 57.7971L143.636 60.7629ZM151.222 68.3214C154.482 70.0767 158.127 70.92 162.084 70.92V64.92C159.001 64.92 156.353 64.2699 154.066 63.0386L151.222 68.3214ZM162.084 70.92C166.26 70.92 170.115 70.021 173.581 68.1644L170.747 62.8756C168.24 64.219 165.374 64.92 162.084 64.92V70.92ZM175.164 65.52V49.12H169.164V65.52H175.164ZM202.043 22V19H199.043V22H202.043ZM215.003 22H218.003V19H215.003V22ZM215.003 78V81H218.003V78H215.003ZM202.043 78H199.043V81H202.043V78ZM202.043 25H215.003V19H202.043V25ZM212.003 22V78H218.003V22H212.003ZM215.003 75H202.043V81H215.003V75ZM205.043 78V22H199.043V78H205.043ZM285.653 22H288.653V19H285.653V22ZM285.653 78V81H288.653V78H285.653ZM275.013 78L272.694 79.9039L273.594 81H275.013V78ZM247.093 44L249.411 42.0961L244.093 35.6195V44H247.093ZM247.093 78V81H250.093V78H247.093ZM234.293 78H231.293V81H234.293V78ZM234.293 22V19H231.293V22H234.293ZM245.013 22L247.334 20.0994L246.434 19H245.013V22ZM272.853 56L270.532 57.9006L275.853 64.3991V56H272.853ZM272.853 22V19H269.853V22H272.853ZM282.653 22V78H288.653V22H282.653ZM285.653 75H275.013V81H285.653V75ZM277.331 76.0961L249.411 42.0961L244.774 45.9039L272.694 79.9039L277.331 76.0961ZM244.093 44V78H250.093V44H244.093ZM247.093 75H234.293V81H247.093V75ZM237.293 78V22H231.293V78H237.293ZM234.293 25H245.013V19H234.293V25ZM242.692 23.9006L270.532 57.9006L275.174 54.0994L247.334 20.0994L242.692 23.9006ZM275.853 56V22H269.853V56H275.853ZM272.853 25H285.653V19H272.853V25Z" fill="#DA211C" mask="url(#path-1-outside-1_1_17)"/>
</svg>
