<svg width="315" height="62" viewBox="0 0 315 62" fill="none" xmlns="http://www.w3.org/2000/svg">
<rect x="0.509033" y="0.398529" width="313.989" height="60.7445" fill="#DA211C"/>
<path d="M97.3465 23.0338H101.396V37.2338H110.171V40.5338H97.3465V23.0338ZM120.616 40.8338C118.8 40.8338 117.158 40.4421 115.691 39.6588C114.241 38.8754 113.1 37.8004 112.266 36.4338C111.45 35.0504 111.041 33.5004 111.041 31.7838C111.041 30.0671 111.45 28.5254 112.266 27.1588C113.1 25.7754 114.241 24.6921 115.691 23.9088C117.158 23.1254 118.8 22.7338 120.616 22.7338C122.433 22.7338 124.066 23.1254 125.516 23.9088C126.966 24.6921 128.108 25.7754 128.941 27.1588C129.775 28.5254 130.191 30.0671 130.191 31.7838C130.191 33.5004 129.775 35.0504 128.941 36.4338C128.108 37.8004 126.966 38.8754 125.516 39.6588C124.066 40.4421 122.433 40.8338 120.616 40.8338ZM120.616 37.3838C121.65 37.3838 122.583 37.1504 123.416 36.6838C124.25 36.2004 124.9 35.5338 125.366 34.6838C125.85 33.8338 126.091 32.8671 126.091 31.7838C126.091 30.7004 125.85 29.7338 125.366 28.8838C124.9 28.0338 124.25 27.3754 123.416 26.9088C122.583 26.4254 121.65 26.1838 120.616 26.1838C119.583 26.1838 118.65 26.4254 117.816 26.9088C116.983 27.3754 116.325 28.0338 115.841 28.8838C115.375 29.7338 115.141 30.7004 115.141 31.7838C115.141 32.8671 115.375 33.8338 115.841 34.6838C116.325 35.5338 116.983 36.2004 117.816 36.6838C118.65 37.1504 119.583 37.3838 120.616 37.3838ZM145.06 31.5088H148.76V38.6088C147.81 39.3254 146.71 39.8754 145.46 40.2588C144.21 40.6421 142.952 40.8338 141.685 40.8338C139.868 40.8338 138.235 40.4504 136.785 39.6838C135.335 38.9004 134.193 37.8254 133.36 36.4588C132.543 35.0754 132.135 33.5171 132.135 31.7838C132.135 30.0504 132.543 28.5004 133.36 27.1338C134.193 25.7504 135.343 24.6754 136.81 23.9088C138.277 23.1254 139.927 22.7338 141.76 22.7338C143.293 22.7338 144.685 22.9921 145.935 23.5088C147.185 24.0254 148.235 24.7754 149.085 25.7588L146.485 28.1588C145.235 26.8421 143.727 26.1838 141.96 26.1838C140.843 26.1838 139.852 26.4171 138.985 26.8838C138.118 27.3504 137.443 28.0088 136.96 28.8588C136.477 29.7088 136.235 30.6838 136.235 31.7838C136.235 32.8671 136.477 33.8338 136.96 34.6838C137.443 35.5338 138.11 36.2004 138.96 36.6838C139.827 37.1504 140.81 37.3838 141.91 37.3838C143.077 37.3838 144.127 37.1338 145.06 36.6338V31.5088ZM152.522 23.0338H156.572V40.5338H152.522V23.0338ZM176.775 23.0338V40.5338H173.45L164.725 29.9088V40.5338H160.725V23.0338H164.075L172.775 33.6588V23.0338H176.775Z" fill="white" fill-opacity="0.9"/>
</svg>
